<svg width="238" height="73" viewBox="0 0 238 73" fill="none" xmlns="http://www.w3.org/2000/svg">
<path d="M81.0513 33L71.9313 4.88H77.2913L84.0513 26.52H82.2513L88.8913 4.88H92.9313L99.5713 26.52H97.7313L104.531 4.88H109.891L100.731 33H96.6913L90.0113 11.4H91.7713L85.1313 33H81.0513ZM118.683 33.4C116.923 33.4 115.336 32.96 113.923 32.08C112.509 31.2 111.403 30 110.603 28.48C109.803 26.96 109.403 25.2533 109.403 23.36C109.403 21.44 109.803 19.72 110.603 18.2C111.403 16.68 112.509 15.48 113.923 14.6C115.336 13.72 116.923 13.28 118.683 13.28C120.069 13.28 121.309 13.56 122.403 14.12C123.496 14.68 124.363 15.4667 125.003 16.48C125.669 17.4667 126.029 18.5867 126.083 19.84V26.8C126.029 28.08 125.669 29.2133 125.003 30.2C124.363 31.1867 123.496 31.9733 122.403 32.56C121.309 33.12 120.069 33.4 118.683 33.4ZM119.643 28.56C121.109 28.56 122.296 28.08 123.203 27.12C124.109 26.1333 124.563 24.8667 124.563 23.32C124.563 22.3067 124.349 21.4133 123.923 20.64C123.523 19.84 122.949 19.2267 122.203 18.8C121.483 18.3467 120.629 18.12 119.643 18.12C118.683 18.12 117.829 18.3467 117.083 18.8C116.363 19.2267 115.789 19.84 115.363 20.64C114.963 21.4133 114.763 22.3067 114.763 23.32C114.763 24.36 114.963 25.28 115.363 26.08C115.789 26.8533 116.363 27.4667 117.083 27.92C117.829 28.3467 118.683 28.56 119.643 28.56ZM124.283 33V27.8L125.123 23.08L124.283 18.44V13.68H129.483V33H124.283ZM134.318 33V4.08H139.558V33H134.318ZM157.401 33V21.92C157.401 20.7733 157.041 19.84 156.321 19.12C155.601 18.4 154.668 18.04 153.521 18.04C152.774 18.04 152.108 18.2 151.521 18.52C150.934 18.84 150.468 19.2933 150.121 19.88C149.801 20.4667 149.641 21.1467 149.641 21.92L147.601 20.88C147.601 19.36 147.921 18.04 148.561 16.92C149.228 15.7733 150.134 14.88 151.281 14.24C152.454 13.6 153.774 13.28 155.241 13.28C156.654 13.28 157.921 13.64 159.041 14.36C160.161 15.0533 161.041 15.9733 161.681 17.12C162.321 18.24 162.641 19.4533 162.641 20.76V33H157.401ZM144.401 33V13.68H149.641V33H144.401ZM175.302 33.4C173.595 33.4 172.075 33.04 170.742 32.32C169.435 31.6 168.409 30.6 167.662 29.32C166.915 28.04 166.542 26.56 166.542 24.88V13.68H171.822V24.76C171.822 25.56 171.955 26.2533 172.222 26.84C172.489 27.4 172.889 27.8267 173.422 28.12C173.955 28.4133 174.582 28.56 175.302 28.56C176.395 28.56 177.249 28.2267 177.862 27.56C178.475 26.8933 178.782 25.96 178.782 24.76V13.68H184.022V24.88C184.022 26.5867 183.649 28.08 182.902 29.36C182.182 30.64 181.155 31.64 179.822 32.36C178.515 33.0533 177.009 33.4 175.302 33.4ZM191.235 33V5.64H196.475V33H191.235ZM186.715 18.28V13.68H200.995V18.28H186.715ZM84.9813 65.35C83.1846 65.35 81.5163 65.035 79.9763 64.405C78.4363 63.7517 77.0829 62.8533 75.9163 61.71C74.7729 60.5433 73.8863 59.19 73.2563 57.65C72.6496 56.11 72.3463 54.4533 72.3463 52.68C72.3463 50.9067 72.6496 49.25 73.2563 47.71C73.8863 46.17 74.7729 44.8283 75.9163 43.685C77.0829 42.5417 78.4246 41.6433 79.9413 40.99C81.4813 40.3367 83.1613 40.01 84.9813 40.01C86.9413 40.01 88.6679 40.3367 90.1613 40.99C91.6546 41.62 92.9729 42.495 94.1163 43.615L90.8963 46.835C90.2196 46.0883 89.3913 45.505 88.4113 45.085C87.4313 44.665 86.2879 44.455 84.9813 44.455C83.8379 44.455 82.7879 44.6533 81.8313 45.05C80.8979 45.4233 80.0813 45.9833 79.3813 46.73C78.6813 47.4533 78.1446 48.3283 77.7713 49.355C77.3979 50.3583 77.2113 51.4667 77.2113 52.68C77.2113 53.9167 77.3979 55.0367 77.7713 56.04C78.1446 57.0433 78.6813 57.9183 79.3813 58.665C80.0813 59.3883 80.8979 59.9483 81.8313 60.345C82.7879 60.7417 83.8379 60.94 84.9813 60.94C86.3579 60.94 87.5363 60.73 88.5163 60.31C89.5196 59.89 90.3596 59.295 91.0363 58.525L94.2563 61.745C93.1129 62.8883 91.7829 63.775 90.2663 64.405C88.7496 65.035 86.9879 65.35 84.9813 65.35ZM104.576 65.35C102.873 65.35 101.333 64.965 99.9561 64.195C98.6027 63.4017 97.5177 62.34 96.7011 61.01C95.9077 59.6567 95.5111 58.1517 95.5111 56.495C95.5111 54.8383 95.9077 53.3567 96.7011 52.05C97.4944 50.72 98.5794 49.67 99.9561 48.9C101.333 48.1067 102.861 47.71 104.541 47.71C106.268 47.71 107.808 48.1067 109.161 48.9C110.538 49.67 111.623 50.72 112.416 52.05C113.209 53.3567 113.606 54.8383 113.606 56.495C113.606 58.1517 113.209 59.6567 112.416 61.01C111.623 62.34 110.538 63.4017 109.161 64.195C107.808 64.965 106.279 65.35 104.576 65.35ZM104.541 61.08C105.404 61.08 106.163 60.8933 106.816 60.52C107.493 60.1233 108.006 59.5867 108.356 58.91C108.729 58.21 108.916 57.4167 108.916 56.53C108.916 55.6433 108.729 54.8617 108.356 54.185C107.983 53.5083 107.469 52.9833 106.816 52.61C106.163 52.2133 105.404 52.015 104.541 52.015C103.701 52.015 102.954 52.2133 102.301 52.61C101.648 52.9833 101.134 53.5083 100.761 54.185C100.388 54.8617 100.201 55.6433 100.201 56.53C100.201 57.4167 100.388 58.21 100.761 58.91C101.134 59.5867 101.648 60.1233 102.301 60.52C102.954 60.8933 103.701 61.08 104.541 61.08ZM127.933 65V55.305C127.933 54.3017 127.618 53.485 126.988 52.855C126.358 52.225 125.541 51.91 124.538 51.91C123.884 51.91 123.301 52.05 122.788 52.33C122.274 52.61 121.866 53.0067 121.563 53.52C121.283 54.0333 121.143 54.6283 121.143 55.305L119.358 54.395C119.358 53.065 119.638 51.91 120.198 50.93C120.781 49.9267 121.574 49.145 122.578 48.585C123.604 48.025 124.759 47.745 126.043 47.745C127.279 47.745 128.388 48.06 129.368 48.69C130.348 49.2967 131.118 50.1017 131.678 51.105C132.238 52.085 132.518 53.1467 132.518 54.29V65H127.933ZM116.558 65V48.095H121.143V65H116.558ZM142.021 65.385C141.064 65.385 140.119 65.2567 139.186 65C138.276 64.7433 137.436 64.3933 136.666 63.95C135.896 63.4833 135.231 62.9233 134.671 62.27L137.401 59.505C137.984 60.1583 138.661 60.6483 139.431 60.975C140.201 61.3017 141.053 61.465 141.986 61.465C142.733 61.465 143.293 61.36 143.666 61.15C144.063 60.94 144.261 60.625 144.261 60.205C144.261 59.7383 144.051 59.3767 143.631 59.12C143.234 58.8633 142.709 58.6533 142.056 58.49C141.403 58.3033 140.714 58.105 139.991 57.895C139.291 57.6617 138.614 57.37 137.961 57.02C137.308 56.6467 136.771 56.145 136.351 55.515C135.954 54.8617 135.756 54.0217 135.756 52.995C135.756 51.9217 136.013 50.9883 136.526 50.195C137.063 49.4017 137.821 48.7833 138.801 48.34C139.781 47.8967 140.936 47.675 142.266 47.675C143.666 47.675 144.926 47.92 146.046 48.41C147.189 48.9 148.134 49.635 148.881 50.615L146.116 53.38C145.603 52.75 145.019 52.295 144.366 52.015C143.736 51.735 143.048 51.595 142.301 51.595C141.624 51.595 141.099 51.7 140.726 51.91C140.376 52.12 140.201 52.4117 140.201 52.785C140.201 53.205 140.399 53.5317 140.796 53.765C141.216 53.9983 141.753 54.2083 142.406 54.395C143.059 54.5583 143.736 54.7567 144.436 54.99C145.159 55.2 145.836 55.5033 146.466 55.9C147.119 56.2967 147.644 56.8217 148.041 57.475C148.461 58.1283 148.671 58.9683 148.671 59.995C148.671 61.6517 148.076 62.97 146.886 63.95C145.696 64.9067 144.074 65.385 142.021 65.385ZM158.973 65.35C157.48 65.35 156.15 65.035 154.983 64.405C153.84 63.775 152.941 62.9 152.288 61.78C151.635 60.66 151.308 59.365 151.308 57.895V48.095H155.928V57.79C155.928 58.49 156.045 59.0967 156.278 59.61C156.511 60.1 156.861 60.4733 157.328 60.73C157.795 60.9867 158.343 61.115 158.973 61.115C159.93 61.115 160.676 60.8233 161.213 60.24C161.75 59.6567 162.018 58.84 162.018 57.79V48.095H166.603V57.895C166.603 59.3883 166.276 60.695 165.623 61.815C164.993 62.935 164.095 63.81 162.928 64.44C161.785 65.0467 160.466 65.35 158.973 65.35ZM170.254 65V39.695H174.839V65H170.254ZM181.387 65V41.06H185.972V65H181.387ZM177.432 52.12V48.095H189.927V52.12H177.432ZM192.505 65V48.095H197.125V65H192.505ZM194.815 45.365C194.068 45.365 193.45 45.12 192.96 44.63C192.47 44.1167 192.225 43.4867 192.225 42.74C192.225 42.0167 192.47 41.3983 192.96 40.885C193.45 40.3717 194.068 40.115 194.815 40.115C195.585 40.115 196.203 40.3717 196.67 40.885C197.16 41.3983 197.405 42.0167 197.405 42.74C197.405 43.4867 197.16 44.1167 196.67 44.63C196.203 45.12 195.585 45.365 194.815 45.365ZM212.562 65V55.305C212.562 54.3017 212.247 53.485 211.617 52.855C210.987 52.225 210.17 51.91 209.167 51.91C208.513 51.91 207.93 52.05 207.417 52.33C206.903 52.61 206.495 53.0067 206.192 53.52C205.912 54.0333 205.772 54.6283 205.772 55.305L203.987 54.395C203.987 53.065 204.267 51.91 204.827 50.93C205.41 49.9267 206.203 49.145 207.207 48.585C208.233 48.025 209.388 47.745 210.672 47.745C211.908 47.745 213.017 48.06 213.997 48.69C214.977 49.2967 215.747 50.1017 216.307 51.105C216.867 52.085 217.147 53.1467 217.147 54.29V65H212.562ZM201.187 65V48.095H205.772V65H201.187ZM227.91 72.49C226.113 72.49 224.527 72.1633 223.15 71.51C221.773 70.88 220.677 69.9817 219.86 68.815L222.765 65.91C223.418 66.68 224.142 67.2633 224.935 67.66C225.752 68.08 226.732 68.29 227.875 68.29C229.298 68.29 230.418 67.9283 231.235 67.205C232.075 66.4817 232.495 65.4783 232.495 64.195V59.96L233.265 56.25L232.53 52.54V48.095H237.08V64.125C237.08 65.805 236.683 67.2633 235.89 68.5C235.12 69.76 234.047 70.74 232.67 71.44C231.293 72.14 229.707 72.49 227.91 72.49ZM227.7 64.545C226.183 64.545 224.818 64.1833 223.605 63.46C222.392 62.7133 221.435 61.6983 220.735 60.415C220.058 59.1317 219.72 57.6967 219.72 56.11C219.72 54.5233 220.058 53.1 220.735 51.84C221.435 50.58 222.392 49.5883 223.605 48.865C224.818 48.1183 226.183 47.745 227.7 47.745C228.96 47.745 230.068 47.99 231.025 48.48C232.005 48.97 232.775 49.6467 233.335 50.51C233.895 51.35 234.198 52.3417 234.245 53.485V58.805C234.198 59.925 233.883 60.9283 233.3 61.815C232.74 62.6783 231.97 63.355 230.99 63.845C230.033 64.3117 228.937 64.545 227.7 64.545ZM228.61 60.38C229.45 60.38 230.173 60.205 230.78 59.855C231.41 59.4817 231.9 58.98 232.25 58.35C232.6 57.6967 232.775 56.9617 232.775 56.145C232.775 55.305 232.6 54.57 232.25 53.94C231.9 53.31 231.41 52.82 230.78 52.47C230.173 52.0967 229.45 51.91 228.61 51.91C227.77 51.91 227.035 52.0967 226.405 52.47C225.775 52.82 225.285 53.3217 224.935 53.975C224.585 54.605 224.41 55.3283 224.41 56.145C224.41 56.9383 224.585 57.6617 224.935 58.315C225.285 58.945 225.775 59.4467 226.405 59.82C227.035 60.1933 227.77 60.38 228.61 60.38Z" fill="#055985"/>
<path d="M19.0293 7.47443C23.3108 7.47443 26.7381 10.8947 26.7383 15.0604V54.9393C26.7383 55.041 26.7364 55.1424 26.7324 55.243C26.572 59.2686 23.2062 62.5262 19.0293 62.5262C14.7478 62.526 11.3203 59.105 11.3203 54.9393C11.3203 53.8578 11.5498 52.8336 11.9609 51.907L13.2676 48.9617L10.0479 49.0975C9.93556 49.1022 9.82257 49.1053 9.70898 49.1053C5.42735 49.1053 2 45.6842 2 41.5184C2.00009 39.6062 2.71679 37.8604 3.9082 36.5223L5.09277 35.1922L3.9082 33.8621C2.71656 32.5239 2.00004 30.7775 2 28.8651C2 24.6992 5.42735 21.2791 9.70898 21.2791C9.87277 21.2791 10.0356 21.2839 10.1963 21.2938L13.6572 21.5047L12.1064 18.4031C11.6033 17.3964 11.3203 16.2632 11.3203 15.0604C11.3205 10.8948 14.7479 7.47465 19.0293 7.47443Z" fill="#0884C7" stroke="#0884C7" stroke-width="4"/>
<path d="M40.2651 7.47894C36.0761 7.47894 32.6802 10.8749 32.6802 15.0639V54.937C32.6802 55.039 32.6821 55.1407 32.686 55.2416C32.8453 59.2885 36.1782 62.5219 40.2651 62.5219C44.454 62.5218 47.85 59.1258 47.8501 54.937C47.8501 53.8519 47.6229 52.825 47.2163 51.8969L45.9292 48.9584L49.1343 49.0961C49.2443 49.1008 49.355 49.103 49.4663 49.103C53.6553 49.103 57.0513 45.707 57.0513 41.518C57.0513 39.5983 56.3409 37.849 55.1655 36.5121L54.0044 35.1918L55.1655 33.8715C56.3409 32.5347 57.0513 30.7854 57.0513 28.8657C57.0511 24.6768 53.6552 21.2807 49.4663 21.2807C49.3057 21.2807 49.1464 21.2866 48.9888 21.2963L45.5454 21.5092L47.0718 18.4145C47.5692 17.4064 47.8501 16.2708 47.8501 15.0639C47.8501 10.875 44.4541 7.47904 40.2651 7.47894Z" fill="#0884C7" stroke="#0884C7" stroke-width="4"/>
</svg>
